# xmcd
#
# Track frame offsets:
#	150
#	18979
#	54291
#	76288
#	102502
#	126867
#	153934
#	177541
#	196575
#	222080
#
# Disc length: 3225 seconds
# Revision: 0
# Processed by: cddbd v1.5.2PL0 Copyright (c) Steve Scherf et al.
# Submitted via: dBpowerAMP V12.0
#
DISCID=7a0c970a
DTITLE=Jimmy Buffett - Live at The Record Plant - Sausalito - 1974-10-18
DYEAR=1974
DGENRE=Country
TTITLE0=The Wino and I Know
TTITLE1=Pencil Thin Moustache
TTITLE2=They Don't Dance Like Carmen No More
TTITLE3=Trying to Reason With Hurricane Season
TTITLE4=Saxophones (Aka Fuji Wuji Song)
TTITLE5=Door Number Three
TTITLE6=Livingston's Gone to Texas
TTITLE7=Railroad Lady
TTITLE8=Dallas
TTITLE9=A Pirate Looks at Forty
EXTD=
EXTT0=
EXTT1=
EXTT2=
EXTT3=
EXTT4=
EXTT5=
EXTT6=
EXTT7=
EXTT8=
EXTT9=
PLAYORDER=
